<svg width="40" height="40" viewBox="0 0 40 40" fill="none" xmlns="http://www.w3.org/2000/svg">
<g clip-path="url(#clip0_4941_223)">
<path d="M30.625 40H9.375C4.20563 40 0 35.7944 0 30.625V9.375C0 4.20563 4.20563 0 9.375 0H30.625C35.7944 0 40 4.20563 40 9.375V30.625C40 35.7944 35.7944 40 30.625 40ZM9.375 3.125C5.92875 3.125 3.125 5.92875 3.125 9.375V30.625C3.125 34.0713 5.92875 36.875 9.375 36.875H30.625C34.0713 36.875 36.875 34.0713 36.875 30.625V9.375C36.875 5.92875 34.0713 3.125 30.625 3.125H9.375Z" fill="#1F77B4"/>
<path d="M27.1094 18.4361H21.6406V12.8906C21.6406 12.0277 20.9411 11.3281 20.0781 11.3281C19.2152 11.3281 18.5156 12.0277 18.5156 12.8906V18.4361H13.0469C12.1839 18.4361 11.4844 19.1356 11.4844 19.9986C11.4844 20.8616 12.1839 21.5611 13.0469 21.5611H18.5156V27.0312C18.5156 27.8942 19.2152 28.5938 20.0781 28.5938C20.9411 28.5938 21.6406 27.8942 21.6406 27.0312V21.5611H27.1094C29.1795 21.4848 29.1794 18.5124 27.1094 18.4361Z" fill="black"/>
</g>
<defs>
<clipPath id="clip0_4941_223">
<rect width="40" height="40" fill="white"/>
</clipPath>
</defs>
</svg>
