<svg width="40" height="40" viewBox="0 0 40 40" fill="none" xmlns="http://www.w3.org/2000/svg">
<path d="M24.2907 26.4594L13.5335 15.792C11.1122 17.1598 7.97579 16.7804 5.95847 14.6875C3.56684 12.2062 3.63977 8.24175 6.12105 5.85012C8.60233 3.45849 12.5668 3.53142 14.9584 6.0127C16.9758 8.10568 17.2395 11.2538 15.7835 13.6233L26.5406 24.2907C27.1395 24.912 27.1213 25.9011 26.5 26.5C25.8787 27.0989 24.8895 27.0807 24.2907 26.4594ZM12.7084 8.18139C11.5126 6.94075 9.53038 6.90428 8.28974 8.1001C7.0491 9.29591 7.01264 11.2781 8.20845 12.5188C9.40427 13.7594 11.3865 13.7959 12.6271 12.6001C13.8678 11.4042 13.9042 9.42202 12.7084 8.18139Z" fill="#1F77B4"/>
<path d="M34.0443 25.8125C31.6527 23.3312 27.6883 23.2583 25.207 25.6499C22.7257 28.0416 22.6528 32.006 25.0444 34.4873C27.436 36.9685 31.4005 37.0415 33.8818 34.6498C36.363 32.2582 36.436 28.2938 34.0443 25.8125ZM27.2944 32.3186C26.0986 31.0779 26.135 29.0957 27.3757 27.8999C28.6163 26.7041 30.5985 26.7406 31.7943 27.9812C32.9902 29.2218 32.9537 31.204 31.7131 32.3999C30.4724 33.5957 28.4902 33.5592 27.2944 32.3186Z" fill="#1F77B4"/>
<path d="M27.0405 17.11C26.4405 17.11 25.8872 16.94 25.3805 16.6C24.8739 16.26 24.5505 15.82 24.4105 15.28L25.8505 14.72C26.0705 15.32 26.4672 15.62 27.0405 15.62C27.3672 15.62 27.6172 15.53 27.7905 15.35C27.9639 15.17 28.0505 14.9333 28.0505 14.64C28.0505 14.3733 27.9572 14.1433 27.7705 13.95C27.5839 13.7567 27.3505 13.66 27.0705 13.66C26.8639 13.66 26.6772 13.71 26.5105 13.81C26.3505 13.9033 26.2372 14.03 26.1705 14.19H24.7505V9.9H29.0705V11.36H26.2605V12.58C26.5272 12.3933 26.8772 12.3 27.3105 12.3C28.0105 12.3 28.5605 12.5267 28.9605 12.98C29.3605 13.4267 29.5605 14.0167 29.5605 14.75C29.5605 15.4833 29.3305 16.06 28.8705 16.48C28.4172 16.9 27.8072 17.11 27.0405 17.11Z" fill="black"/>
</svg>
