<svg width="40" height="40" viewBox="0 0 40 40" fill="none" xmlns="http://www.w3.org/2000/svg">
<path d="M24.2907 26.4594L13.5335 15.792C11.1122 17.1598 7.97579 16.7804 5.95847 14.6875C3.56684 12.2062 3.63977 8.24175 6.12105 5.85012C8.60233 3.45849 12.5668 3.53142 14.9584 6.0127C16.9758 8.10568 17.2395 11.2538 15.7835 13.6233L26.5406 24.2907C27.1395 24.912 27.1213 25.9011 26.5 26.5C25.8787 27.0989 24.8895 27.0807 24.2907 26.4594ZM12.7084 8.18139C11.5126 6.94075 9.53038 6.90428 8.28974 8.1001C7.0491 9.29591 7.01264 11.2781 8.20845 12.5188C9.40427 13.7594 11.3865 13.7959 12.6271 12.6001C13.8678 11.4042 13.9042 9.42202 12.7084 8.18139Z" fill="#1F77B4"/>
<path d="M34.0443 25.8125C31.6527 23.3312 27.6883 23.2583 25.207 25.6499C22.7257 28.0416 22.6528 32.006 25.0444 34.4873C27.436 36.9685 31.4005 37.0415 33.8818 34.6498C36.363 32.2582 36.436 28.2938 34.0443 25.8125ZM27.2944 32.3186C26.0986 31.0779 26.135 29.0957 27.3757 27.8999C28.6163 26.7041 30.5985 26.7406 31.7943 27.9812C32.9902 29.2218 32.9537 31.204 31.7131 32.3999C30.4724 33.5957 28.4902 33.5592 27.2944 32.3186Z" fill="#1F77B4"/>
<path d="M26.0982 18.1C25.5182 18.1 24.9882 17.94 24.5082 17.62C24.0282 17.2933 23.7249 16.8733 23.5982 16.36L24.4682 16.06C24.5549 16.4133 24.7449 16.7033 25.0382 16.93C25.3315 17.15 25.6849 17.26 26.0982 17.26C26.5115 17.26 26.8582 17.1133 27.1382 16.82C27.4182 16.5267 27.5582 16.1667 27.5582 15.74C27.5582 15.3067 27.4182 14.9433 27.1382 14.65C26.8582 14.3567 26.5015 14.21 26.0682 14.21C25.4815 14.21 25.0582 14.4133 24.7982 14.82H23.9182V10.9H27.9682V11.74H24.7782V13.9C25.1182 13.56 25.5849 13.39 26.1782 13.39C26.8382 13.39 27.3782 13.6267 27.7982 14.1C28.2249 14.5667 28.4382 15.15 28.4382 15.85C28.4382 16.4767 28.2115 17.01 27.7582 17.45C27.3115 17.8833 26.7582 18.1 26.0982 18.1Z" fill="black"/>
</svg>
