<svg width="40" height="40" viewBox="0 0 40 40" fill="none" xmlns="http://www.w3.org/2000/svg">
<path d="M16.875 30.625C17.738 30.625 18.4375 29.9255 18.4375 29.0625V20.3125C18.4375 19.4495 17.738 18.75 16.875 18.75C16.012 18.75 15.3125 19.4495 15.3125 20.3125V29.0625C15.3125 29.9255 16.012 30.625 16.875 30.625Z" fill="black"/>
<path d="M23.125 18.75C22.262 18.75 21.5625 19.4495 21.5625 20.3125V29.0625C21.5625 29.9255 22.262 30.625 23.125 30.625C23.988 30.625 24.6875 29.9255 24.6875 29.0625V20.3125C24.6875 19.4495 23.988 18.75 23.125 18.75Z" fill="black"/>
<path d="M15.3125 4.6875C15.3125 3.82594 16.0134 3.125 16.875 3.125H23.125C23.9866 3.125 24.6875 3.82594 24.6875 4.6875C24.6875 5.55047 25.387 6.25 26.25 6.25C27.113 6.25 27.8125 5.55047 27.8125 4.6875C27.8125 2.10281 25.7097 0 23.125 0H16.875C14.2903 0 12.1875 2.10281 12.1875 4.6875C12.1875 5.55047 12.887 6.25 13.75 6.25C14.613 6.25 15.3125 5.55047 15.3125 4.6875Z" fill="#1F77B4"/>
<path d="M4.375 9.375C3.51203 9.375 2.8125 10.0745 2.8125 10.9375C2.8125 11.8005 3.51203 12.5 4.375 12.5H6.12359L9.0982 35.8934C9.38859 38.2345 11.3884 40 13.75 40H26.25C28.6116 40 30.6114 38.2345 30.9011 35.8981L33.8763 12.5H35.625C36.488 12.5 37.1875 11.8005 37.1875 10.9375C37.1875 10.0745 36.488 9.375 35.625 9.375H4.375ZM30.7262 12.5L27.8005 35.5087C27.7039 36.2877 27.0373 36.875 26.25 36.875H13.75C12.9627 36.875 12.2961 36.2876 12.1988 35.5039L9.27375 12.5H30.7262Z" fill="#1F77B4"/>
</svg>
