<svg width="40" height="40" viewBox="0 0 40 40" fill="none" xmlns="http://www.w3.org/2000/svg">
<g clip-path="url(#clip0_4941_229)">
<path d="M30.625 40H9.375C4.20563 40 0 35.7944 0 30.625V9.375C0 4.20563 4.20563 0 9.375 0H30.625C35.7944 0 40 4.20563 40 9.375V30.625C40 35.7944 35.7944 40 30.625 40ZM9.375 3.125C5.92875 3.125 3.125 5.92875 3.125 9.375V30.625C3.125 34.0713 5.92875 36.875 9.375 36.875H30.625C34.0713 36.875 36.875 34.0713 36.875 30.625V9.375C36.875 5.92875 34.0713 3.125 30.625 3.125H9.375Z" fill="#1F77B4"/>
<path d="M27.1094 18.436H21.6406H18.5156H13.0469C12.1839 18.436 11.4844 19.1356 11.4844 19.9985C11.4844 20.8615 12.1839 21.561 13.0469 21.561H18.5156H21.6406H27.1094C29.1795 21.4847 29.1794 18.5124 27.1094 18.436Z" fill="black"/>
</g>
<defs>
<clipPath id="clip0_4941_229">
<rect width="40" height="40" fill="white"/>
</clipPath>
</defs>
</svg>
