<svg width="40" height="40" viewBox="0 0 40 40" fill="none" xmlns="http://www.w3.org/2000/svg">
<path d="M34.0443 25.8125C31.6527 23.3312 27.6883 23.2583 25.207 25.6499C22.7257 28.0416 22.6528 32.006 25.0444 34.4873C27.436 36.9685 31.4005 37.0415 33.8818 34.6498C36.363 32.2582 36.436 28.2938 34.0443 25.8125ZM27.2944 32.3186C26.0986 31.0779 26.135 29.0957 27.3757 27.8999C28.6163 26.7041 30.5985 26.7406 31.7943 27.9812C32.9902 29.2218 32.9537 31.204 31.7131 32.3999C30.4724 33.5957 28.4902 33.5592 27.2944 32.3186Z" fill="black"/>
<path d="M18.25 20.6687L13.5335 15.792C11.1122 17.1598 7.97579 16.7804 5.95847 14.6875C3.56684 12.2062 3.63977 8.24175 6.12105 5.85012C8.60233 3.45849 12.5668 3.53142 14.9584 6.0127C16.9758 8.10568 17.2395 11.2538 15.7835 13.6233L20.5 18.5C21.0989 19.1213 21.0807 20.1105 20.4594 20.7093C19.838 21.3082 18.8489 21.29 18.25 20.6687ZM12.7084 8.18139C11.5126 6.94075 9.53038 6.90428 8.28974 8.1001C7.0491 9.29591 7.01264 11.2781 8.20845 12.5188C9.40427 13.7594 11.3865 13.7959 12.6271 12.6001C13.8678 11.4042 13.9042 9.42202 12.7084 8.18139Z" fill="#1F77B4"/>
</svg>
