<svg width="40" height="40" viewBox="0 0 40 40" fill="none" xmlns="http://www.w3.org/2000/svg">
<g clip-path="url(#clip0_4941_208)">
<path d="M10.9375 31.25C12.7259 31.25 14.3836 30.2088 15.161 28.5976L19.058 20.5198C19.3648 19.8839 19.8838 19.3648 20.5198 19.058L28.5976 15.1611C30.2088 14.3837 31.25 12.7259 31.25 10.9375C31.25 8.85516 29.8527 7.00164 27.852 6.43L5.97695 0.18C5.55891 0.0605469 5.12516 0 4.6875 0C2.10281 0 0 2.10281 0 4.6875C0 5.125 0.0604687 5.55875 0.179922 5.9768L6.43 27.852C7.00164 29.8527 8.85523 31.25 10.9375 31.25ZM4.6875 3.125C4.83469 3.125 4.97961 3.14508 5.11844 3.18477L26.9935 9.43477C27.6597 9.62516 28.125 10.243 28.125 10.9375C28.125 11.543 27.7858 12.083 27.2397 12.3464L19.1619 16.2434C17.8923 16.8559 16.8558 17.8923 16.2434 19.1619L12.3465 27.2397C12.083 27.7858 11.5431 28.125 10.9375 28.125C10.243 28.125 9.62508 27.6597 9.43477 26.9934L3.18477 5.11844C3.14516 4.97969 3.125 4.83469 3.125 4.6875C3.125 3.82594 3.82594 3.125 4.6875 3.125Z" fill="#1F77B4"/>
<path d="M22.8125 29.0625C21.9495 29.0625 21.25 28.363 21.25 27.5V25.9375C21.25 23.3549 23.3549 21.25 25.9375 21.25H27.5C28.363 21.25 29.0625 21.9495 29.0625 22.8125C29.0625 23.6755 28.363 24.375 27.5 24.375H26.5848L30.625 28.4152L34.6652 24.375H33.75C32.887 24.375 32.1875 23.6755 32.1875 22.8125C32.1875 21.9495 32.887 21.25 33.75 21.25H35.3125C37.8951 21.25 40 23.3549 40 25.9375V27.5C40 28.363 39.3005 29.0625 38.4375 29.0625C37.5745 29.0625 36.875 28.363 36.875 27.5V26.5848L32.8348 30.625L36.875 34.6652V33.75C36.875 32.887 37.5745 32.1875 38.4375 32.1875C39.3005 32.1875 40 32.887 40 33.75V35.3125C40 37.8951 37.8951 40 35.3125 40H33.75C32.887 40 32.1875 39.3005 32.1875 38.4375C32.1875 37.5745 32.887 36.875 33.75 36.875H34.6652L30.625 32.8348L26.5848 36.875H27.5C28.363 36.875 29.0625 37.5745 29.0625 38.4375C29.0625 39.3005 28.363 40 27.5 40H25.9375C23.3494 40 21.25 37.8904 21.25 35.3125V33.75C21.25 32.887 21.9495 32.1875 22.8125 32.1875C23.6755 32.1875 24.375 32.887 24.375 33.75V34.6652L28.4152 30.625L24.375 26.5848V27.5C24.375 28.363 23.6755 29.0625 22.8125 29.0625Z" fill="black"/>
</g>
<defs>
<clipPath id="clip0_4941_208">
<rect width="40" height="40" fill="white" transform="matrix(-1 0 0 1 40 0)"/>
</clipPath>
</defs>
</svg>
