<svg width="40" height="40" viewBox="0 0 40 40" fill="none" xmlns="http://www.w3.org/2000/svg">
<g clip-path="url(#clip0_4941_269)">
<path d="M30.625 40H9.375C4.20563 40 0 35.7944 0 30.625V9.375C0 4.20563 4.20563 0 9.375 0H15.1562C17.8037 0 20.3402 1.1275 22.1156 3.09336C22.694 3.73383 22.6437 4.72188 22.0033 5.30023C21.3629 5.87844 20.3748 5.82828 19.7965 5.18789C18.6125 3.87687 16.9212 3.125 15.1562 3.125H9.375C5.92875 3.125 3.125 5.92875 3.125 9.375V30.625C3.125 34.0713 5.92875 36.875 9.375 36.875H30.625C34.0713 36.875 36.875 34.0713 36.875 30.625V15.7812C36.875 13.502 35.2494 11.5607 33.0096 11.1653C32.1598 11.0153 31.5925 10.2048 31.7425 9.355C31.8924 8.50523 32.7025 7.93758 33.5528 8.08789C37.2886 8.74727 40 11.9828 40 15.7812V30.625C40 35.7944 35.7944 40 30.625 40ZM7.96875 33.0469C7.10578 33.0469 6.40625 32.3473 6.40625 31.4844V15.7812C6.40625 11.4734 9.91086 7.96875 14.2188 7.96875H21.4062C23.4772 8.04555 23.4756 11.0177 21.4062 11.0938H14.2188C11.6341 11.0938 9.53125 13.1966 9.53125 15.7812V31.4844C9.53125 32.3473 8.83172 33.0469 7.96875 33.0469Z" fill="#1F77B4"/>
<path d="M27.3842 26.328C26.1076 26.328 24.9073 25.8308 24.0046 24.9282C24.0018 24.9253 23.9989 24.9224 23.9961 24.9196L21.0779 21.9555C19.6798 20.4258 21.7987 18.342 23.3048 19.7631L26.2181 22.7222C26.8331 23.3591 27.9353 23.3591 28.5503 22.7222L31.4636 19.7632C32.069 19.1482 33.0583 19.1405 33.6732 19.7459C34.2881 20.3513 34.2959 21.3406 33.6905 21.9555L30.7723 24.9195C30.7695 24.9224 30.7666 24.9253 30.7637 24.9282C29.861 25.8309 28.6608 26.328 27.3842 26.328ZM27.3452 19.3749C26.4822 19.3749 25.7827 18.6754 25.7827 17.8124V1.56238C25.8594 -0.508555 28.8316 -0.506992 28.9077 1.56238V17.8124C28.9077 18.6754 28.2081 19.3749 27.3452 19.3749Z" fill="black"/>
</g>
<defs>
<clipPath id="clip0_4941_269">
<rect width="40" height="40" fill="white"/>
</clipPath>
</defs>
</svg>
